<svg xmlns="http://www.w3.org/2000/svg" viewBox="0 0 468 344.84"><defs><style>.cls-1{fill:none;stroke:#222931;stroke-miterlimit:10;stroke-width:7px;}</style></defs><g id="Layer_2" data-name="Layer 2"><g id="Layer_1-2" data-name="Layer 1"><path class="cls-1" d="M464.5,65v136.1a61.45,61.45,0,0,1-61.45,61.45H224.73a14.73,14.73,0,0,0-8.26,2.53L104.82,340.16a6.76,6.76,0,0,1-10.5-6.43L102.76,279A14.72,14.72,0,0,0,88.14,262.5H65A61.45,61.45,0,0,1,3.5,201.05V65A61.45,61.45,0,0,1,65,3.5h338.1A61.45,61.45,0,0,1,464.5,65Z"/></g></g></svg>