<svg xmlns="http://www.w3.org/2000/svg" viewBox="0 0 432.86 611.14"><defs><style>.cls-1{fill:none;stroke:#505760;stroke-miterlimit:10;stroke-width:9px;}</style></defs><g id="Layer_2" data-name="Layer 2"><g id="Layer_1-2" data-name="Layer 1"><path class="cls-1" d="M391.8,417.7c-9.34,13.49-39.45,113.15-39.45,113.15C316,562,199.75,541.23,199.75,541.23s0-4.15-2.07-12.46c-5.35-21.36-65.4-51.9-108-76.82s-69.55-93.42-70.59-110S16,295.2,8.75,284.82s-7.27-27,16.61-31.14,54,11.42,58.13,56.06,36.33,60.21,45.68,68.51,58.13,12.46,87.19-1,51.91-72.66,51.91-72.66c-65.4-8.31-115.23-65.4-115.23-65.4-3.12,3.11-49.83,15.57-79.93,15.57-22.29,0-25.23-19.34-23.57-31.49.58-4.27,1.73-7.65,2.81-9,4.15-5.19,94.46-34.26,115.22-31.15,14.41,2.16,75.79,26.81,112,41.7a0,0,0,0,1,0,0l.22.09,22.64,9.39.43.18.95.39,1.16.49,1.67.69c-6.22-9.33-14.52-74.73-14.52-74.73-9.35-6.23-43.61-55-46.72-58.14-2.09-2.09-16.29-22.81-26.06-43.45-4.82-10.16-8.55-20.3-9.24-28.18C208.06,7.66,239.2-1.68,246.47,8.7S371,138.45,377.26,147.8,425,287.94,428.13,313.89,401.14,404.2,391.8,417.7Z"/><path class="cls-1" d="M306.67,236l-1.67-.69-1.16-.49-.95-.39-.43-.18c-4.6-1.93-12.65-5.29-22.64-9.39l-.22-.09a0,0,0,0,0,0,0c-6.3-9.17-2-34.43-2-34.43-17.65-8.31-35.29-50.23-35.29-50.23C189.38,130.39,172.77,92.78,179,72s40.37-12.31,40.37-12.31c9.77,20.64,24,41.36,26.06,43.45,3.11,3.12,37.37,51.91,46.72,58.14C292.15,161.3,300.45,226.7,306.67,236Z"/><path class="cls-1" d="M352.86,600.4a485.37,485.37,0,0,1-155.18,0c1-5.19,2.07-59.17,2.07-59.17S316,562,352.35,530.85c-1.55,4.67-1.43,22.06-.91,38.27C351.79,580.09,352.1,590.53,352.86,600.4Z"/></g></g></svg>